<svg width="11" height="12" viewBox="0 0 11 12" fill="none" xmlns="http://www.w3.org/2000/svg">
<g clip-path="url(#clip0_158_691)">
<path d="M2.01974 0.128906L1.44468 1.11562C1.35584 1.26797 1.30909 1.44375 1.30909 1.62187V1.6875C1.30909 2.20547 1.72753 2.625 2.24416 2.625C2.76078 2.625 3.17922 2.20547 3.17922 1.6875V1.62187C3.17922 1.44375 3.13247 1.27031 3.04364 1.11562L2.46857 0.128906C2.42182 0.0492187 2.33766 0 2.24416 0C2.15065 0 2.06649 0.0492187 2.01974 0.128906ZM5.01195 0.128906L4.43688 1.11562C4.34805 1.26797 4.3013 1.44375 4.3013 1.62187V1.6875C4.3013 2.20547 4.71974 2.625 5.23636 2.625C5.75299 2.625 6.17143 2.20547 6.17143 1.6875V1.62187C6.17143 1.44375 6.12468 1.27031 6.03584 1.11562L5.46078 0.128906C5.41403 0.0492187 5.32987 0 5.23636 0C5.14286 0 5.0587 0.0492187 5.01195 0.128906ZM7.42909 1.11562C7.34026 1.26797 7.29351 1.44375 7.29351 1.62187V1.6875C7.29351 2.20547 7.71195 2.625 8.22857 2.625C8.74519 2.625 9.16364 2.20547 9.16364 1.6875V1.62187C9.16364 1.44375 9.11688 1.27031 9.02805 1.11562L8.45299 0.128906C8.40623 0.0492187 8.32208 0 8.22857 0C8.13507 0 8.05091 0.0492187 8.00416 0.128906L7.42909 1.11562ZM2.99221 4.125C2.99221 3.71016 2.65792 3.375 2.24416 3.375C1.83039 3.375 1.4961 3.71016 1.4961 4.125V5.25C0.670909 5.25 0 5.92266 0 6.75V8.41406C0.194026 8.53594 0.423117 8.625 0.673247 8.625C0.988831 8.625 1.30909 8.48203 1.57091 8.31094C1.69714 8.22891 1.80234 8.14453 1.87481 8.08359C1.90987 8.05312 1.93792 8.02734 1.95662 8.01094C1.96597 8.00156 1.97299 7.99687 1.97532 7.99219L1.97766 7.98984C2.05013 7.91484 2.15065 7.875 2.25584 7.87734C2.36104 7.87969 2.45688 7.92656 2.52701 8.00391L2.52935 8.00625C2.53169 8.00859 2.5387 8.01562 2.54571 8.02266C2.56208 8.03906 2.58545 8.0625 2.61818 8.09297C2.68364 8.15391 2.77714 8.23594 2.89403 8.31562C3.13247 8.48203 3.43169 8.62266 3.7426 8.62266C4.05351 8.62266 4.35273 8.48203 4.59117 8.31562C4.70805 8.23359 4.80156 8.15391 4.86701 8.09297C4.89974 8.0625 4.92312 8.03906 4.93948 8.02266C4.94649 8.01562 4.95351 8.00859 4.95584 8.00625L4.95818 8.00391C5.02831 7.92188 5.13117 7.87734 5.2387 7.87734C5.34623 7.87734 5.44909 7.92422 5.51922 8.00391L5.52156 8.00625C5.5239 8.00859 5.53091 8.01562 5.53792 8.02266C5.55429 8.03906 5.57766 8.0625 5.61039 8.09297C5.67584 8.15391 5.76935 8.23594 5.88623 8.31562C6.12468 8.48203 6.4239 8.62266 6.73481 8.62266C7.04571 8.62266 7.34493 8.48203 7.58338 8.31562C7.70026 8.23359 7.79377 8.15391 7.85922 8.09297C7.89195 8.0625 7.91532 8.03906 7.93169 8.02266C7.9387 8.01562 7.94571 8.00859 7.94805 8.00625L7.95039 8.00391C8.01818 7.92422 8.11636 7.87969 8.22156 7.87734C8.32675 7.875 8.42494 7.91484 8.49974 7.98984L8.50208 7.99219C8.50675 7.99687 8.51143 8.00156 8.52078 8.01094C8.53948 8.02734 8.5652 8.05312 8.6026 8.08359C8.67507 8.14453 8.77792 8.22891 8.90649 8.31094C9.16831 8.48203 9.48857 8.625 9.80416 8.625C10.0543 8.625 10.2834 8.53359 10.4774 8.41406V6.75C10.4774 5.92266 9.80649 5.25 8.9813 5.25V4.125C8.9813 3.71016 8.64701 3.375 8.23325 3.375C7.81948 3.375 7.4852 3.71016 7.4852 4.125V5.25H5.98442V4.125C5.98442 3.71016 5.65013 3.375 5.23636 3.375C4.8226 3.375 4.48831 3.71016 4.48831 4.125V5.25H2.99221V4.125ZM10.4727 9.24844C10.274 9.32578 10.0473 9.375 9.79948 9.375C9.27351 9.375 8.80831 9.14297 8.49506 8.93906C8.39922 8.87578 8.31273 8.8125 8.24026 8.75625C8.1748 8.8125 8.09766 8.87344 8.01117 8.93203C7.70961 9.14062 7.26078 9.375 6.73247 9.375C6.20416 9.375 5.75532 9.14062 5.4561 8.93203C5.37429 8.87578 5.29948 8.81719 5.23636 8.76328C5.17325 8.81719 5.09844 8.87344 5.01662 8.93203C4.7174 9.14062 4.26857 9.375 3.74026 9.375C3.21195 9.375 2.76312 9.14062 2.4639 8.93203C2.3774 8.87109 2.30026 8.81016 2.23481 8.75625C2.16234 8.8125 2.07584 8.87578 1.98 8.93906C1.66442 9.14297 1.19922 9.375 0.673247 9.375C0.425455 9.375 0.198701 9.32344 0 9.24844V11.25C0 11.6648 0.334286 12 0.748052 12H9.72468C10.1384 12 10.4727 11.6648 10.4727 11.25V9.24844Z" fill="#CCCCCC"/>
</g>
<defs>
<clipPath id="clip0_158_691">
<rect width="10.4727" height="12" fill="white"/>
</clipPath>
</defs>
</svg>
