<svg width="16" height="16" viewBox="0 0 16 16" fill="none" xmlns="http://www.w3.org/2000/svg">
<g clip-path="url(#clip0_265_1655)">
<path d="M4.75322 1.19368C5.0626 1.4718 5.0876 1.94368 4.80947 2.25305L2.55947 4.75305C2.42197 4.90618 2.22822 4.9968 2.02197 4.99993C1.81572 5.00305 1.61885 4.92493 1.47197 4.78118L0.218848 3.53118C-0.0717774 3.23743 -0.0717774 2.76243 0.218848 2.46868C0.509473 2.17493 0.987598 2.17493 1.27822 2.46868L1.96885 3.1593L3.69072 1.2468C3.96885 0.93743 4.44072 0.91243 4.7501 1.19055L4.75322 1.19368ZM4.75322 6.19368C5.0626 6.4718 5.0876 6.94368 4.80947 7.25305L2.55947 9.75305C2.42197 9.90618 2.22822 9.9968 2.02197 9.99993C1.81572 10.0031 1.61885 9.92493 1.47197 9.78118L0.218848 8.53118C-0.0749023 8.23743 -0.0749023 7.76243 0.218848 7.4718C0.512598 7.18118 0.987598 7.17805 1.27822 7.4718L1.96885 8.16243L3.69072 6.24993C3.96885 5.94055 4.44072 5.91555 4.7501 6.19368H4.75322ZM7.0001 2.99993C7.0001 2.4468 7.44697 1.99993 8.0001 1.99993H15.0001C15.5532 1.99993 16.0001 2.4468 16.0001 2.99993C16.0001 3.55305 15.5532 3.99993 15.0001 3.99993H8.0001C7.44697 3.99993 7.0001 3.55305 7.0001 2.99993ZM7.0001 7.99993C7.0001 7.4468 7.44697 6.99993 8.0001 6.99993H15.0001C15.5532 6.99993 16.0001 7.4468 16.0001 7.99993C16.0001 8.55305 15.5532 8.99993 15.0001 8.99993H8.0001C7.44697 8.99993 7.0001 8.55305 7.0001 7.99993ZM5.0001 12.9999C5.0001 12.4468 5.44697 11.9999 6.0001 11.9999H15.0001C15.5532 11.9999 16.0001 12.4468 16.0001 12.9999C16.0001 13.5531 15.5532 13.9999 15.0001 13.9999H6.0001C5.44697 13.9999 5.0001 13.5531 5.0001 12.9999ZM1.5001 11.4999C1.89792 11.4999 2.27945 11.658 2.56076 11.9393C2.84206 12.2206 3.0001 12.6021 3.0001 12.9999C3.0001 13.3978 2.84206 13.7793 2.56076 14.0606C2.27945 14.3419 1.89792 14.4999 1.5001 14.4999C1.10227 14.4999 0.720742 14.3419 0.439437 14.0606C0.158133 13.7793 9.76473e-05 13.3978 9.76473e-05 12.9999C9.76473e-05 12.6021 0.158133 12.2206 0.439437 11.9393C0.720742 11.658 1.10227 11.4999 1.5001 11.4999Z" fill="#7C83FD"/>
</g>
<defs>
<clipPath id="clip0_265_1655">
<rect width="16" height="16" fill="white"/>
</clipPath>
</defs>
</svg>
