<svg width="21" height="20" viewBox="0 0 21 20" fill="none" xmlns="http://www.w3.org/2000/svg">
<g clip-path="url(#clip0_167_989)">
<path d="M5.73828 4.13672L0.941406 8.93359C0.660156 9.21484 0.5 9.60156 0.5 10C0.5 10.3984 0.660156 10.7852 0.941406 11.0664L5.73828 15.8633C5.98828 16.1133 6.32422 16.25 6.67578 16.25C7.40625 16.25 8 15.6562 8 14.9258V12.5H13C13.6914 12.5 14.25 11.9414 14.25 11.25V8.75C14.25 8.05859 13.6914 7.5 13 7.5H8V5.07422C8 4.34375 7.40625 3.75 6.67578 3.75C6.32422 3.75 5.98828 3.89062 5.73828 4.13672ZM14.25 3.75H16.75C17.4414 3.75 18 4.30859 18 5V15C18 15.6914 17.4414 16.25 16.75 16.25H14.25C13.5586 16.25 13 16.8086 13 17.5C13 18.1914 13.5586 18.75 14.25 18.75H16.75C18.8203 18.75 20.5 17.0703 20.5 15V5C20.5 2.92969 18.8203 1.25 16.75 1.25H14.25C13.5586 1.25 13 1.80859 13 2.5C13 3.19141 13.5586 3.75 14.25 3.75Z" fill="#7C83FD"/>
</g>
<defs>
<clipPath id="clip0_167_989">
<rect width="20" height="20" fill="white" transform="matrix(-1 0 0 1 20.5 0)"/>
</clipPath>
</defs>
</svg>
