<svg width="12" height="12" viewBox="0 0 12 12" fill="none" xmlns="http://www.w3.org/2000/svg">
<g clip-path="url(#clip0_158_697)">
<path d="M3.86484 0.576603C3.68437 0.140665 3.20859 -0.0913661 2.75391 0.0328527L0.691406 0.595353C0.283594 0.707853 0 1.07817 0 1.50004C0 7.29848 4.70156 12 10.5 12C10.9219 12 11.2922 11.7164 11.4047 11.3086L11.9672 9.24613C12.0914 8.79145 11.8594 8.31567 11.4234 8.1352L9.17344 7.1977C8.79141 7.03832 8.34844 7.14848 8.08828 7.46957L7.14141 8.62504C5.49141 7.84457 4.15547 6.50863 3.375 4.85863L4.53047 3.9141C4.85156 3.6516 4.96172 3.21098 4.80234 2.82895L3.86484 0.578946V0.576603Z" fill="#CCCCCC"/>
</g>
<defs>
<clipPath id="clip0_158_697">
<rect width="12" height="12" fill="white"/>
</clipPath>
</defs>
</svg>
