<svg width="24" height="30" viewBox="0 0 24 30" fill="none" xmlns="http://www.w3.org/2000/svg">
<path d="M12 15C13.3261 15 14.5979 14.4732 15.5355 13.5355C16.4732 12.5979 17 11.3261 17 10C17 8.67392 16.4732 7.40215 15.5355 6.46447C14.5979 5.52678 13.3261 5 12 5C10.6739 5 9.40215 5.52678 8.46447 6.46447C7.52678 7.40215 7 8.67392 7 10C7 11.3261 7.52678 12.5979 8.46447 13.5355C9.40215 14.4732 10.6739 15 12 15ZM10.2148 16.875C6.36719 16.875 3.25 19.9922 3.25 23.8398C3.25 24.4805 3.76953 25 4.41016 25H19.5898C20.2305 25 20.75 24.4805 20.75 23.8398C20.75 19.9922 17.6328 16.875 13.7852 16.875H10.2148Z" fill="#D1D3FB"/>
</svg>
