<svg width="24" height="30" viewBox="0 0 24 30" fill="none" xmlns="http://www.w3.org/2000/svg">
<path d="M8.25 5C8.94141 5 9.5 5.55859 9.5 6.25V7.5H14.5V6.25C14.5 5.55859 15.0586 5 15.75 5C16.4414 5 17 5.55859 17 6.25V7.5H18.875C19.9102 7.5 20.75 8.33984 20.75 9.375V11.25H3.25V9.375C3.25 8.33984 4.08984 7.5 5.125 7.5H7V6.25C7 5.55859 7.55859 5 8.25 5ZM3.25 12.5H20.75V23.125C20.75 24.1602 19.9102 25 18.875 25H5.125C4.08984 25 3.25 24.1602 3.25 23.125V12.5ZM5.75 15.625V16.875C5.75 17.2188 6.03125 17.5 6.375 17.5H7.625C7.96875 17.5 8.25 17.2188 8.25 16.875V15.625C8.25 15.2812 7.96875 15 7.625 15H6.375C6.03125 15 5.75 15.2812 5.75 15.625ZM10.75 15.625V16.875C10.75 17.2188 11.0312 17.5 11.375 17.5H12.625C12.9688 17.5 13.25 17.2188 13.25 16.875V15.625C13.25 15.2812 12.9688 15 12.625 15H11.375C11.0312 15 10.75 15.2812 10.75 15.625ZM16.375 15C16.0312 15 15.75 15.2812 15.75 15.625V16.875C15.75 17.2188 16.0312 17.5 16.375 17.5H17.625C17.9688 17.5 18.25 17.2188 18.25 16.875V15.625C18.25 15.2812 17.9688 15 17.625 15H16.375ZM5.75 20.625V21.875C5.75 22.2188 6.03125 22.5 6.375 22.5H7.625C7.96875 22.5 8.25 22.2188 8.25 21.875V20.625C8.25 20.2812 7.96875 20 7.625 20H6.375C6.03125 20 5.75 20.2812 5.75 20.625ZM11.375 20C11.0312 20 10.75 20.2812 10.75 20.625V21.875C10.75 22.2188 11.0312 22.5 11.375 22.5H12.625C12.9688 22.5 13.25 22.2188 13.25 21.875V20.625C13.25 20.2812 12.9688 20 12.625 20H11.375ZM15.75 20.625V21.875C15.75 22.2188 16.0312 22.5 16.375 22.5H17.625C17.9688 22.5 18.25 22.2188 18.25 21.875V20.625C18.25 20.2812 17.9688 20 17.625 20H16.375C16.0312 20 15.75 20.2812 15.75 20.625Z" fill="#D1D3FB"/>
</svg>
