<svg width="24" height="30" viewBox="0 0 24 30" fill="none" xmlns="http://www.w3.org/2000/svg">
<path d="M21.3748 11.5091C21.4998 11.849 21.3943 12.228 21.1247 12.4702L19.433 14.0096C19.476 14.3339 19.4994 14.666 19.4994 15.002C19.4994 15.338 19.476 15.6701 19.433 15.9943L21.1247 17.5337C21.3943 17.7759 21.4998 18.1549 21.3748 18.4948C21.2029 18.9598 20.9958 19.4052 20.7575 19.8349L20.5738 20.1514C20.316 20.5812 20.0269 20.9875 19.7104 21.3704C19.4799 21.6517 19.097 21.7455 18.7532 21.6361L16.577 20.9445C16.0534 21.3469 15.4752 21.6829 14.8579 21.9369L14.3695 24.1678C14.2914 24.5233 14.0179 24.8046 13.6584 24.8633C13.1193 24.9531 12.5645 25 11.9979 25C11.4314 25 10.8766 24.9531 10.3375 24.8633C9.97802 24.8046 9.70453 24.5233 9.62639 24.1678L9.13801 21.9369C8.5207 21.6829 7.94246 21.3469 7.41892 20.9445L5.24663 21.64C4.90281 21.7494 4.51992 21.6517 4.28941 21.3743C3.97294 20.9914 3.68382 20.5851 3.42596 20.1553L3.24233 19.8388C3.004 19.4091 2.79693 18.9637 2.62502 18.4987C2.5 18.1588 2.60549 17.7798 2.87507 17.5376L4.56681 15.9982C4.52383 15.6701 4.50039 15.338 4.50039 15.002C4.50039 14.666 4.52383 14.3339 4.56681 14.0096L2.87507 12.4702C2.60549 12.228 2.5 11.849 2.62502 11.5091C2.79693 11.0441 3.004 10.5988 3.24233 10.169L3.42596 9.85251C3.68382 9.42274 3.97294 9.01641 4.28941 8.63352C4.51992 8.35222 4.90281 8.25845 5.24663 8.36785L7.42283 9.05939C7.94637 8.65696 8.52461 8.32096 9.14192 8.06701L9.63029 5.8361C9.70843 5.48056 9.98193 5.19926 10.3414 5.14065C10.8805 5.04688 11.4353 5 12.0019 5C12.5684 5 13.1232 5.04688 13.6623 5.13675C14.0218 5.19535 14.2953 5.47666 14.3734 5.83219L14.8618 8.0631C15.4791 8.31705 16.0573 8.65306 16.5809 9.05548L18.7571 8.36394C19.1009 8.25454 19.4838 8.35222 19.7143 8.62962C20.0308 9.0125 20.3199 9.41883 20.5777 9.8486L20.7614 10.1651C20.9997 10.5948 21.2068 11.0402 21.3787 11.5052L21.3748 11.5091ZM12.0019 18.1276C12.8308 18.1276 13.6258 17.7983 14.212 17.2121C14.7982 16.6259 15.1275 15.8309 15.1275 15.002C15.1275 14.173 14.7982 13.378 14.212 12.7918C13.6258 12.2056 12.8308 11.8763 12.0019 11.8763C11.1729 11.8763 10.3779 12.2056 9.79171 12.7918C9.20555 13.378 8.87624 14.173 8.87624 15.002C8.87624 15.8309 9.20555 16.6259 9.79171 17.2121C10.3779 17.7983 11.1729 18.1276 12.0019 18.1276Z" fill="#D1D3FB"/>
</svg>
