<svg width="14" height="12" viewBox="0 0 14 12" fill="none" xmlns="http://www.w3.org/2000/svg">
<g clip-path="url(#clip0_294_677)">
<path d="M7.9274 0.421875C7.80318 0.164062 7.54068 0 7.2524 0C6.96412 0 6.70396 0.164062 6.5774 0.421875L5.07037 3.52266L1.70474 4.01953C1.42349 4.06172 1.18912 4.25859 1.1024 4.52812C1.01568 4.79766 1.08599 5.09531 1.28755 5.29453L3.72974 7.71094L3.15318 11.1258C3.1063 11.407 3.22349 11.693 3.45552 11.8594C3.68755 12.0258 3.99458 12.0469 4.24771 11.9133L7.25474 10.3078L10.2618 11.9133C10.5149 12.0469 10.8219 12.0281 11.054 11.8594C11.286 11.6906 11.4032 11.407 11.3563 11.1258L10.7774 7.71094L13.2196 5.29453C13.4211 5.09531 13.4938 4.79766 13.4047 4.52812C13.3157 4.25859 13.0836 4.06172 12.8024 4.01953L9.43443 3.52266L7.9274 0.421875Z" fill="#FFB84F"/>
</g>
<defs>
<clipPath id="clip0_294_677">
<rect width="13.5" height="12" fill="white" transform="translate(0.5)"/>
</clipPath>
</defs>
</svg>
